<svg width="111" height="111" viewBox="0 0 111 111" fill="none" xmlns="http://www.w3.org/2000/svg">
<path fill-rule="evenodd" clip-rule="evenodd" d="M55.5 111C86.1518 111 111 86.1518 111 55.5C111 24.8482 86.1518 0 55.5 0C24.8482 0 0 24.8482 0 55.5C0 86.1518 24.8482 111 55.5 111Z" fill="#4DA0B8"/>
<path fill-rule="evenodd" clip-rule="evenodd" d="M3.90887 76H107.091C109.613 69.6579 111 62.7409 111 55.5C111 24.8482 86.1518 0 55.5 0C24.8482 0 0 24.8482 0 55.5C0 62.7409 1.38666 69.6579 3.90887 76Z" fill="#6DCCE4"/>
<path d="M25.0408 49.6498H82.7755V77.2544C82.7755 82.7773 78.2984 87.2544 72.7755 87.2544H35.0408C29.518 87.2544 25.0408 82.7773 25.0408 77.2544V49.6498Z" fill="#F7AD3B"/>
<rect x="23.3673" y="45.3108" width="61.9184" height="4.33899" rx="2.1695" fill="#F7AD3B"/>
<path d="M82.7755 55.4351H88.8389C91.0356 55.4351 92.8163 57.2159 92.8163 59.4125V59.4125C92.8163 61.6092 91.0356 63.3899 88.8389 63.3899H82.7755V55.4351Z" fill="#F7AD3B"/>
<path d="M25.0408 63.3899H18.9774C16.7808 63.3899 15 61.6092 15 59.4125V59.4125C15 57.2159 16.7807 55.4351 18.9774 55.4351H25.0408V63.3899Z" fill="#F7AD3B"/>
<path fill-rule="evenodd" clip-rule="evenodd" d="M58.2329 32.4308C59.9212 30.5826 61.0204 27.8513 61.0204 25.8834C61.0204 22.6341 58.0235 20 54.3266 20C50.6296 20 47.6327 22.6341 47.6327 25.8834C47.6327 27.835 48.7138 30.5375 50.3784 32.3848C51.5359 32.3247 52.7138 32.2938 53.9082 32.2938C55.3771 32.2938 56.8211 32.3405 58.2329 32.4308Z" fill="#465C5C"/>
<path fill-rule="evenodd" clip-rule="evenodd" d="M83.6123 45.3108C83.6123 38.1217 70.3133 32.2938 53.9082 32.2938C37.5031 32.2938 24.2041 38.1217 24.2041 45.3108H83.6123Z" fill="#749EAB"/>
<path fill-rule="evenodd" clip-rule="evenodd" d="M82.5934 41.9723C89.9439 41.8705 96.2444 41.4781 98.4001 40.6341C104.443 38.2682 103.771 34.7195 98.4001 33.9309C95.9293 33.5681 94.6662 33.7894 93.7938 33.9423C92.7697 34.1217 92.2839 34.2068 91.015 33.1423C88.6651 31.1707 89.3365 24.8618 91.6863 23.2846C92.6597 22.6313 94.0938 23.0604 95.7739 23.5632C98.15 24.2742 101.018 25.1324 103.771 23.2846C108.471 20.1302 108.135 15.3985 103.771 13.8212C99.4072 12.244 69.1952 10.6668 64.4955 13.8212C59.7958 16.9757 60.4672 20.5245 64.4955 23.2846C67.0212 25.0152 71.5262 24.5757 75.3631 24.2014C77.6459 23.9787 79.6921 23.7791 80.9443 24.0733C84.3012 24.8619 81.6157 32.748 76.916 33.9309C74.9279 34.4313 70.8973 33.8732 66.5523 33.2717L66.5522 33.2717C63.7765 32.8874 60.8725 32.4853 58.2907 32.3301C58.2606 32.3639 58.2304 32.3975 58.2 32.4308C70.0243 33.1866 79.5883 36.9951 82.5934 41.9723Z" fill="#B7E3EF"/>
<ellipse cx="84.8673" cy="81.8533" rx="12.1327" ry="8.67799" fill="#D73247"/>
<path fill-rule="evenodd" clip-rule="evenodd" d="M86.9476 73.8985L90.5143 72.1937L85.9679 71.9422L85.0622 68.4521L83.158 71.7868L78.6115 71.5353L81.9811 73.8478L81.9521 73.8985H86.9476Z" fill="#2CC351"/>
</svg>
